<svg width="42" height="42" viewBox="0 0 42 42" fill="none" xmlns="http://www.w3.org/2000/svg">
<path d="M20.9937 0C32.5953 0 42 9.40361 42 21.0034C42 32.6027 32.5949 42 20.9937 42C9.39252 42 0 32.6027 0 21.0034C0 9.40361 9.3921 0 20.9937 0Z" fill="#EBEEEF"/>
<path d="M20.9948 2.52037C31.2043 2.52037 39.4807 10.7955 39.4807 21.0029C39.4807 31.2104 31.2043 39.48 20.9948 39.48C10.7852 39.48 2.521 31.2113 2.521 21.0029C2.521 10.7955 10.7857 2.52037 20.9948 2.52037Z" fill="#0074DF"/>
<path d="M9.24316 24.7858H10.999L13.6815 20.1583H9.24358V24.7858H9.24316ZM18.8524 20.1588L16.0637 24.7732L26.6126 24.7862L23.8385 20.1583H18.8524V20.1588ZM33.1848 20.1588H28.1299L30.3633 24.7866H33.1853L33.1848 20.1588ZM22.22 11.1924C20.4213 8.41495 19.8484 8.84418 19.8484 8.84418C19.8484 8.84418 19.2599 9.22217 20.6784 12.2638C24.0868 19.5712 26.2165 22.7375 26.2165 22.7375L28.0379 21.6825C28.0379 21.6825 24.5413 14.7761 22.22 11.1924ZM28.3151 22.1646L26.5298 23.2344L28.2361 25.9324L29.6538 25.0332L28.3151 22.1646ZM32.6619 29.6317C31.1828 26.6699 29.9693 25.5939 29.9693 25.5939L28.5386 26.4674C28.5386 26.4674 29.4501 29.7052 30.5431 31.1138C31.1442 31.8883 32.1746 31.3675 32.1746 31.3675C32.1746 31.3675 33.1853 30.68 32.6619 29.6317ZM11.0284 26.2058L13.4433 27.8488L18.6806 18.924L16.1472 17.3603L11.0284 26.2058ZM9.76824 30.5636L13.1027 28.4347L10.6877 26.832C10.6869 26.832 10.0165 29.5225 9.76824 30.5636ZM16.4619 16.7976L19.0217 18.3477L20.1769 16.3427L17.709 14.7526L16.4619 16.7976ZM20.8309 14.593C20.7574 14.1634 19.5947 13.3515 19.1171 13.3851C18.4786 13.4296 18.1161 14.1777 18.1161 14.1777L20.5314 15.7417C20.5314 15.7417 20.9145 15.0848 20.8309 14.593Z" fill="white"/>
<path d="M20.9946 2.52037C15.5716 2.52037 10.6964 4.85552 7.31787 8.57497C10.5973 5.59597 14.9529 3.78035 19.7344 3.78035C29.9439 3.78035 38.2203 12.0554 38.2203 22.2633C38.2203 27.0458 36.4036 31.4024 33.4228 34.6821C37.1433 31.302 39.4805 26.4271 39.4805 21.0029C39.4805 10.7955 31.2041 2.52037 20.9946 2.52037Z" fill="#0167C8"/>
</svg>
