<svg width="21" height="17" viewBox="0 0 21 17" fill="none" xmlns="http://www.w3.org/2000/svg">
<path d="M1.95551 5.11743C2.21324 5.2993 2.99013 5.83945 4.28622 6.73759C5.58235 7.63574 6.57528 8.32729 7.26504 8.81229C7.34082 8.86545 7.50182 8.98102 7.74812 9.15914C7.99446 9.33738 8.19914 9.48142 8.36202 9.59129C8.52501 9.70112 8.72205 9.82433 8.95334 9.96072C9.18454 10.097 9.40249 10.1995 9.60714 10.2674C9.81182 10.3358 10.0013 10.3697 10.1756 10.3697H10.187H10.1985C10.3728 10.3697 10.5624 10.3357 10.767 10.2674C10.9716 10.1995 11.1897 10.0969 11.4208 9.96072C11.6519 9.82417 11.8489 9.70108 12.0119 9.59129C12.1749 9.48142 12.3794 9.33738 12.6259 9.15914C12.8721 8.98086 13.0333 8.86545 13.1091 8.81229C13.8063 8.32729 15.5801 7.09556 18.4299 5.11719C18.9832 4.7308 19.4455 4.26456 19.8168 3.7188C20.1884 3.17327 20.3741 2.60099 20.3741 2.00226C20.3741 1.50194 20.1939 1.07365 19.8339 0.717439C19.4738 0.36115 19.0474 0.183105 18.5549 0.183105H1.81904C1.23544 0.183105 0.786328 0.380146 0.471773 0.774226C0.157258 1.16839 0 1.66107 0 2.25223C0 2.72973 0.208509 3.24718 0.625327 3.80425C1.04211 4.36137 1.48565 4.79913 1.95551 5.11743Z" fill="#BFBFBF"/>
<path d="M19.237 6.33383C16.7511 8.01636 14.8635 9.32396 13.5752 10.2564C13.1431 10.5746 12.7927 10.823 12.5235 11.001C12.2543 11.1791 11.8964 11.361 11.4491 11.5466C11.002 11.7325 10.5853 11.8252 10.1986 11.8252H10.1871H10.1756C9.78908 11.8252 9.37214 11.7325 8.92502 11.5466C8.47789 11.361 8.11969 11.1791 7.85061 11.001C7.58162 10.823 7.23102 10.5746 6.79903 10.2564C5.77572 9.50602 3.89222 8.19834 1.14843 6.33383C0.716281 6.04599 0.33351 5.71607 0 5.34473V14.3718C0 14.8724 0.178045 15.3004 0.534333 15.6567C0.890542 16.013 1.31887 16.1912 1.81915 16.1912H18.555C19.0552 16.1912 19.4835 16.013 19.8397 15.6567C20.1961 15.3003 20.3741 14.8724 20.3741 14.3718V5.34473C20.0481 5.70838 19.6692 6.03831 19.237 6.33383Z" fill="#BFBFBF"/>
</svg>
