<svg width="34" height="34" viewBox="0 0 34 34" fill="none" xmlns="http://www.w3.org/2000/svg">
<path d="M3.1875 3.95052V30.0482C3.18767 30.1048 3.20456 30.1601 3.23604 30.2072C3.26753 30.2542 3.3122 30.2909 3.36447 30.3127C3.41674 30.3345 3.47427 30.3403 3.52985 30.3295C3.58544 30.3188 3.63659 30.2918 3.67691 30.252L17.2656 17L3.67691 3.74665C3.63659 3.7069 3.58544 3.67993 3.52985 3.66914C3.47427 3.65834 3.41674 3.6642 3.36447 3.68597C3.3122 3.70774 3.26753 3.74446 3.23604 3.79152C3.20456 3.83859 3.18767 3.89389 3.1875 3.95052Z" fill="#080000"/>
<path d="M22.9635 11.5547L5.92497 2.1675L5.91434 2.16152C5.62083 2.00215 5.34192 2.39926 5.58231 2.63035L18.9386 15.4016L22.9635 11.5547Z" fill="#080000"/>
<path d="M5.58358 31.3697C5.34186 31.6007 5.62077 31.9979 5.91561 31.8385L5.92623 31.8325L22.9634 22.4453L18.9385 18.5971L5.58358 31.3697Z" fill="#080000"/>
<path d="M29.8417 15.3398L25.0837 12.7195L20.6099 17L25.0837 21.2786L29.8417 18.6602C31.1359 17.945 31.1359 16.055 29.8417 15.3398Z" fill="#080000"/>
</svg>
