<svg width="70" height="84" viewBox="0 0 70 84" fill="none" xmlns="http://www.w3.org/2000/svg">
<path fill-rule="evenodd" clip-rule="evenodd" d="M24.0625 8.75C20.0014 8.75 16.1066 10.3633 13.2349 13.2349C10.3633 16.1066 8.75 20.0014 8.75 24.0625V45.9375C8.75 49.9986 10.3633 53.8934 13.2349 56.7651C16.1066 59.6367 20.0014 61.25 24.0625 61.25H45.9375C49.9986 61.25 53.8934 59.6367 56.7651 56.7651C59.6367 53.8934 61.25 49.9986 61.25 45.9375V35C61.25 34.4198 61.4805 33.8634 61.8907 33.4532C62.3009 33.043 62.8573 32.8125 63.4375 32.8125C64.0177 32.8125 64.5741 33.043 64.9843 33.4532C65.3945 33.8634 65.625 34.4198 65.625 35V45.9375C65.625 51.159 63.5508 56.1665 59.8587 59.8587C56.1665 63.5508 51.159 65.625 45.9375 65.625H24.0625C18.8411 65.625 13.8335 63.5508 10.1413 59.8587C6.44921 56.1665 4.375 51.159 4.375 45.9375V24.0625C4.375 18.8411 6.44921 13.8335 10.1413 10.1413C13.8335 6.44921 18.8411 4.375 24.0625 4.375H35C35.5802 4.375 36.1366 4.60547 36.5468 5.0157C36.957 5.42594 37.1875 5.98234 37.1875 6.5625C37.1875 7.14266 36.957 7.69906 36.5468 8.1093C36.1366 8.51953 35.5802 8.75 35 8.75H24.0625Z" fill="black"/>
<path d="M70 13.125C70 16.606 68.6172 19.9444 66.1558 22.4058C63.6944 24.8672 60.356 26.25 56.875 26.25C53.394 26.25 50.0556 24.8672 47.5942 22.4058C45.1328 19.9444 43.75 16.606 43.75 13.125C43.75 9.64403 45.1328 6.30564 47.5942 3.84422C50.0556 1.38281 53.394 0 56.875 0C60.356 0 63.6944 1.38281 66.1558 3.84422C68.6172 6.30564 70 9.64403 70 13.125Z" fill="black"/>
<path d="M46.8576 39.25H42.7501V26.3333C42.7501 24.9125 41.5876 23.75 40.1668 23.75H29.8334C28.4126 23.75 27.2501 24.9125 27.2501 26.3333V39.25H23.1426C20.8434 39.25 19.6809 42.04 21.3084 43.6675L33.1659 55.525C34.1734 56.5325 35.8009 56.5325 36.8084 55.525L48.6659 43.6675C50.2934 42.04 49.1568 39.25 46.8576 39.25ZM16.9167 76.0833C16.9167 77.5042 18.0792 78.6667 19.5001 78.6667H50.5001C51.9209 78.6667 53.0834 77.5042 53.0834 76.0833C53.0834 74.6625 51.9209 73.5 50.5001 73.5H19.5001C18.0792 73.5 16.9167 74.6625 16.9167 76.0833Z" fill="black"/>
</svg>
